<?xml version="1.0" encoding="UTF-8" standalone="no"?>
<!-- Created with Inkscape (http://www.inkscape.org/) -->

<svg
   xmlns:dc="http://purl.org/dc/elements/1.1/"
   xmlns:cc="http://creativecommons.org/ns#"
   xmlns:rdf="http://www.w3.org/1999/02/22-rdf-syntax-ns#"
   xmlns:svg="http://www.w3.org/2000/svg"
   xmlns="http://www.w3.org/2000/svg"
   xmlns:xlink="http://www.w3.org/1999/xlink"
   xmlns:sodipodi="http://sodipodi.sourceforge.net/DTD/sodipodi-0.dtd"
   xmlns:inkscape="http://www.inkscape.org/namespaces/inkscape"
   version="1.0"
   width="68.950981"
   height="70.428391"
   id="svg2"
   inkscape:version="0.48.4 r9939"
   sodipodi:docname="publish.svg">
  <metadata
     id="metadata3085">
    <rdf:RDF>
      <cc:Work
         rdf:about="">
        <dc:format>image/svg+xml</dc:format>
        <dc:type
           rdf:resource="http://purl.org/dc/dcmitype/StillImage" />
        <dc:title></dc:title>
      </cc:Work>
    </rdf:RDF>
  </metadata>
  <sodipodi:namedview
     pagecolor="#ffffff"
     bordercolor="#666666"
     borderopacity="1"
     objecttolerance="10"
     gridtolerance="10"
     guidetolerance="10"
     inkscape:pageopacity="0"
     inkscape:pageshadow="2"
     inkscape:window-width="1920"
     inkscape:window-height="1018"
     id="namedview3083"
     showgrid="false"
     inkscape:zoom="3.7083822"
     inkscape:cx="132.50315"
     inkscape:cy="14.764975"
     inkscape:window-x="-8"
     inkscape:window-y="-8"
     inkscape:window-maximized="1"
     inkscape:current-layer="layer2"
     fit-margin-top="0"
     fit-margin-left="0"
     fit-margin-right="0"
     fit-margin-bottom="0" />
  <defs
     id="defs4">
    <linearGradient
       x1="92.604424"
       y1="304.50995"
       x2="263.82959"
       y2="26.290426"
       id="linearGradient3199"
       xlink:href="#linearGradient2889"
       gradientUnits="userSpaceOnUse" />
    <linearGradient
       id="linearGradient2889">
      <stop
         style="stop-color:#a0a3e1;stop-opacity:1"
         offset="0"
         id="stop2891" />
      <stop
         style="stop-color:#dedcfa;stop-opacity:1"
         offset="1"
         id="stop2893" />
    </linearGradient>
    <radialGradient
       cx="18.63378"
       cy="17.486208"
       r="40.692665"
       fx="18.934305"
       fy="17.810213"
       id="radialGradient1544"
       xlink:href="#linearGradient4750"
       gradientUnits="userSpaceOnUse"
       gradientTransform="scale(1.036822,0.964486)" />
    <radialGradient
       cx="18.63378"
       cy="17.486208"
       r="40.692665"
       fx="18.934305"
       fy="17.810213"
       id="radialGradient1542"
       xlink:href="#linearGradient4750"
       gradientUnits="userSpaceOnUse"
       gradientTransform="scale(1.036822,0.964486)" />
    <radialGradient
       cx="18.63378"
       cy="17.486208"
       r="40.692665"
       fx="18.934305"
       fy="17.810213"
       id="radialGradient1540"
       xlink:href="#linearGradient4750"
       gradientUnits="userSpaceOnUse"
       gradientTransform="scale(1.036822,0.964486)" />
    <radialGradient
       cx="18.63378"
       cy="17.486208"
       r="40.692665"
       fx="18.934305"
       fy="17.810213"
       id="radialGradient1538"
       xlink:href="#linearGradient4750"
       gradientUnits="userSpaceOnUse"
       gradientTransform="scale(1.036822,0.964486)" />
    <radialGradient
       cx="18.63378"
       cy="17.486208"
       r="40.692665"
       fx="18.934305"
       fy="17.810213"
       id="radialGradient1536"
       xlink:href="#linearGradient4750"
       gradientUnits="userSpaceOnUse"
       gradientTransform="scale(1.036822,0.964486)" />
    <radialGradient
       cx="18.63378"
       cy="17.486208"
       r="40.692665"
       fx="18.934305"
       fy="17.810213"
       id="radialGradient1534"
       xlink:href="#linearGradient4750"
       gradientUnits="userSpaceOnUse"
       gradientTransform="scale(1.036822,0.964486)" />
    <radialGradient
       cx="18.63378"
       cy="17.486208"
       r="40.692665"
       fx="18.934305"
       fy="17.810213"
       id="radialGradient1532"
       xlink:href="#linearGradient4750"
       gradientUnits="userSpaceOnUse"
       gradientTransform="scale(1.036822,0.964486)" />
    <radialGradient
       cx="18.63378"
       cy="17.486208"
       r="40.692665"
       fx="18.934305"
       fy="17.810213"
       id="radialGradient1530"
       xlink:href="#linearGradient4750"
       gradientUnits="userSpaceOnUse"
       gradientTransform="scale(1.036822,0.964486)" />
    <radialGradient
       cx="18.63378"
       cy="17.486208"
       r="40.692665"
       fx="18.934305"
       fy="17.810213"
       id="radialGradient1528"
       xlink:href="#linearGradient4750"
       gradientUnits="userSpaceOnUse"
       gradientTransform="scale(1.036822,0.964486)" />
    <radialGradient
       cx="18.63378"
       cy="17.486208"
       r="40.692665"
       fx="18.934305"
       fy="17.810213"
       id="radialGradient1526"
       xlink:href="#linearGradient4750"
       gradientUnits="userSpaceOnUse"
       gradientTransform="scale(1.036822,0.964486)" />
    <radialGradient
       cx="18.63378"
       cy="17.486208"
       r="40.692665"
       fx="18.934305"
       fy="17.810213"
       id="radialGradient1516"
       xlink:href="#linearGradient4750"
       gradientUnits="userSpaceOnUse"
       gradientTransform="scale(1.036822,0.964486)" />
    <linearGradient
       id="linearGradient4750">
      <stop
         style="stop-color:white;stop-opacity:1"
         offset="0"
         id="stop4752" />
      <stop
         style="stop-color:#fefefe;stop-opacity:1"
         offset="0.37931034"
         id="stop4758" />
      <stop
         style="stop-color:#1d1d1d;stop-opacity:1"
         offset="1"
         id="stop4754" />
    </linearGradient>
    <radialGradient
       cx="18.63378"
       cy="17.486208"
       r="40.692665"
       fx="18.934305"
       fy="17.810213"
       id="radialGradient3557"
       xlink:href="#linearGradient4750"
       gradientUnits="userSpaceOnUse"
       gradientTransform="matrix(5.57654,0,0,5.187481,56.50405,37.58623)" />
    <radialGradient
       cx="18.63378"
       cy="17.486208"
       r="40.692665"
       fx="18.934305"
       fy="17.810213"
       id="radialGradient3566"
       xlink:href="#linearGradient4750"
       gradientUnits="userSpaceOnUse"
       gradientTransform="matrix(5.57654,0,0,5.187481,56.50405,37.58623)" />
    <radialGradient
       cx="18.63378"
       cy="17.486208"
       r="40.692665"
       fx="18.934305"
       fy="17.810213"
       id="radialGradient3573"
       xlink:href="#linearGradient4750"
       gradientUnits="userSpaceOnUse"
       gradientTransform="matrix(5.57654,0,0,5.187481,56.50405,37.58623)" />
    <radialGradient
       cx="18.63378"
       cy="17.486208"
       r="40.692665"
       fx="18.934305"
       fy="17.810213"
       id="radialGradient3580"
       xlink:href="#linearGradient4750"
       gradientUnits="userSpaceOnUse"
       gradientTransform="matrix(5.57654,0,0,5.187481,56.50405,37.58623)" />
    <radialGradient
       cx="18.63378"
       cy="17.486208"
       r="40.692665"
       fx="18.934305"
       fy="17.810213"
       id="radialGradient3587"
       xlink:href="#linearGradient4750"
       gradientUnits="userSpaceOnUse"
       gradientTransform="matrix(5.57654,0,0,5.187481,56.50405,37.58623)" />
    <radialGradient
       cx="18.63378"
       cy="17.486208"
       r="40.692665"
       fx="18.934305"
       fy="17.810213"
       id="radialGradient3594"
       xlink:href="#linearGradient4750"
       gradientUnits="userSpaceOnUse"
       gradientTransform="matrix(5.57654,0,0,5.187481,56.50405,37.58623)" />
    <radialGradient
       cx="18.63378"
       cy="17.486208"
       r="40.692665"
       fx="18.934305"
       fy="17.810213"
       id="radialGradient3601"
       xlink:href="#linearGradient4750"
       gradientUnits="userSpaceOnUse"
       gradientTransform="matrix(5.57654,0,0,5.187481,56.50405,37.58623)" />
    <radialGradient
       cx="18.63378"
       cy="17.486208"
       r="40.692665"
       fx="18.934305"
       fy="17.810213"
       id="radialGradient3610"
       xlink:href="#linearGradient4750"
       gradientUnits="userSpaceOnUse"
       gradientTransform="matrix(5.57654,0,0,5.187481,56.50405,37.58623)" />
    <radialGradient
       cx="18.63378"
       cy="17.486208"
       r="40.692665"
       fx="18.934305"
       fy="17.810213"
       id="radialGradient3615"
       xlink:href="#linearGradient4750"
       gradientUnits="userSpaceOnUse"
       gradientTransform="matrix(5.57654,0,0,5.187481,56.50405,37.58623)" />
    <radialGradient
       cx="18.63378"
       cy="17.486208"
       r="40.692665"
       fx="18.934305"
       fy="17.810213"
       id="radialGradient3651"
       xlink:href="#linearGradient4750"
       gradientUnits="userSpaceOnUse"
       gradientTransform="scale(1.036822,0.964486)" />
    <radialGradient
       cx="18.63378"
       cy="17.486208"
       r="40.692665"
       fx="18.934305"
       fy="17.810213"
       id="radialGradient3654"
       xlink:href="#linearGradient4750"
       gradientUnits="userSpaceOnUse"
       gradientTransform="matrix(5.57654,0,0,5.187481,56.50405,37.58623)" />
  </defs>
  <g
     transform="matrix(5.378493,0,0,5.378493,-9.921758,-223.42188)"
     style="color:#000000;fill:url(#radialGradient1526);fill-opacity:1;fill-rule:nonzero;stroke:none;stroke-width:1.01794541;marker:none;visibility:visible;display:inline;overflow:visible"
     id="g3282">
    <g
       style="opacity:0.75;color:#000000;fill:url(#radialGradient1528);marker:none;visibility:visible;display:inline;overflow:visible"
       id="g3284">
      <path
         d=""
         style="color:#000000;fill:url(#radialGradient1530);marker:none;visibility:visible;display:inline;overflow:visible"
         id="path3286"
         inkscape:connector-curvature="0" />
    </g>
    <g
       style="color:#000000;fill:url(#radialGradient1532);marker:none;visibility:visible;display:inline;overflow:visible"
       id="g3288">
      <path
         d=""
         style="color:#000000;fill:url(#radialGradient1534);marker:none;visibility:visible;display:inline;overflow:visible"
         id="path3290"
         inkscape:connector-curvature="0" />
    </g>
  </g>
  <g
     transform="matrix(5.378493,0,0,5.378493,-9.921758,-223.42188)"
     style="color:#000000;fill:url(#radialGradient1536);fill-opacity:1;fill-rule:nonzero;stroke:none;stroke-width:1.01794541;marker:none;visibility:visible;display:inline;overflow:visible"
     id="g3292">
    <g
       style="opacity:0.75;color:#000000;fill:url(#radialGradient1538);marker:none;visibility:visible;display:inline;overflow:visible"
       id="g3294">
      <path
         d=""
         style="color:#000000;fill:url(#radialGradient1540);marker:none;visibility:visible;display:inline;overflow:visible"
         id="path3296"
         inkscape:connector-curvature="0" />
    </g>
    <g
       style="color:#000000;fill:url(#radialGradient1542);marker:none;visibility:visible;display:inline;overflow:visible"
       id="g3298">
      <path
         d=""
         style="color:#000000;fill:url(#radialGradient1544);marker:none;visibility:visible;display:inline;overflow:visible"
         id="path3300"
         inkscape:connector-curvature="0" />
    </g>
  </g>
  <g
     inkscape:groupmode="layer"
     id="layer1"
     inkscape:label="globe"
     transform="translate(-66.425808,-261.00811)"
     sodipodi:insensitive="true">
    <path
       inkscape:connector-curvature="0"
       d="m 134.37679,296.22109 c 0,18.89658 -14.9886,34.21541 -33.47507,34.21541 -18.488172,0 -33.475912,-15.319 -33.475912,-34.21541 0,-18.89572 14.98774,-34.21298 33.475912,-34.21298 18.48647,0 33.47507,15.31726 33.47507,34.21298 l 0,0 z"
       style="fill:#4b72a7;fill-opacity:1;fill-rule:nonzero;stroke:#4b72a7;stroke-width:2;stroke-miterlimit:4;stroke-opacity:1;stroke-dasharray:none"
       id="path3214" />
    <path
       inkscape:connector-curvature="0"
       d="m 133.08816,290.74184 c 0,0.45534 0,0 0,0 l -0.92413,1.06981 c -0.56644,-0.68224 -1.20242,-1.25597 -1.84823,-1.85519 l -1.41765,0.21321 -1.29519,-1.49639 0,1.85189 1.10966,0.85817 0.73858,0.85488 0.98704,-1.14088 c 0.24846,0.47563 0.49352,0.95125 0.74028,1.42688 l 0,1.42531 -1.11135,1.28301 -2.03378,1.42688 -1.54025,1.57091 -0.98704,-1.14434 0.49352,-1.28301 -0.98551,-1.14088 -1.6644,-3.636 -1.41765,-1.63852 -0.37106,0.42657 0.55643,2.06857 1.04674,1.21193 c 0.59782,1.76384 1.1892,3.44967 1.97424,5.13568 1.21736,0 2.365,-0.13207 3.57404,-0.28773 l 0,0.99874 -1.47903,3.70794 -1.35642,1.56745 -1.10965,2.42735 c 0,1.33051 0,2.661 0,3.99133 l 0.37106,1.57092 -0.61613,0.71102 -1.35811,0.85643 -1.41764,1.21195 1.17258,1.35424 -1.60318,1.42862 0.30798,0.9242 -2.40484,2.78287 -1.60148,0 -1.35642,0.85643 -0.86459,0 0,-1.14088 -0.36768,-2.28521 c -0.47707,-1.43208 -0.97381,-2.85393 -1.47903,-4.27579 0,-1.04953 0.0612,-2.08883 0.12261,-3.13818 l 0.61784,-1.42532 -0.86459,-1.71305 0.0629,-2.35281 -1.17257,-1.35425 0.58628,-1.96023 -0.95397,-1.10621 -1.66609,0 -0.55474,-0.6415 -1.6644,1.07068 -0.67736,-0.78625 -1.54195,1.35495 c -1.04674,-1.21282 -2.09517,-2.42476 -3.14343,-3.6367 l -1.23227,-2.99606 1.10965,-1.70958 -0.61613,-0.71257 1.35471,-3.28223 c 1.11305,-1.41508 2.27562,-2.77263 3.45159,-4.1352 l 2.0967,-0.57044 2.34192,-0.28444 1.60318,0.42831 2.28054,2.35109 0.80166,-0.92595 1.10796,-0.14213 2.0967,0.71257 1.60318,0 1.10965,-0.99874 0.49352,-0.71258 -1.11135,-0.71257 -1.84993,-0.14213 c -0.51337,-0.72782 -0.99044,-1.49291 -1.59996,-2.13962 l -0.61783,0.28444 -0.24676,1.85518 -1.10966,-1.28301 -0.24506,-1.4286 -1.23228,-0.99528 -0.49521,0 1.2338,1.42531 -0.49352,1.28301 -0.98552,0.28444 0.61614,-1.28301 -1.11135,-0.56871 -0.98382,-1.14088 -1.85163,0.42659 -0.24506,0.56869 -1.10965,0.71431 -0.61614,1.56918 -1.54026,0.78364 -0.67905,-0.78364 -0.73859,0 0,-2.56775 1.60318,-0.85644 1.23227,0 -0.24846,-0.99701 -0.98381,-0.99874 1.66287,-0.35724 0.92412,-1.06808 0.73858,-1.28474 1.35812,0 -0.37108,-0.99701 0.86459,-0.57044 0,1.14088 1.84824,0.42657 1.84824,-1.56745 0.12415,-0.71431 1.60147,-1.14001 c -0.57967,0.0737 -1.15934,0.12775 -1.72578,0.28531 l 0,-1.28457 0.61613,-1.42618 -0.61613,0 -1.35405,1.283 -0.37107,0.71344 0.37107,0.99962 -0.61783,1.70958 -0.98551,-0.57044 -0.86121,-0.99701 -1.3581,0.99701 -0.49352,-2.28089 2.34192,-1.56831 0,-0.85644 1.48056,-0.99788 2.34193,-0.5713 1.60318,0.5713 2.95789,0.57044 -0.73858,0.85488 -1.60318,0 1.60318,1.71131 1.23227,-1.42531 0.37429,-0.62712 c 0,0 4.72677,4.32986 7.42807,9.06617 2.7013,4.73789 3.96987,10.32215 3.96987,11.45627 z m -30.52868,-19.89532 -0.12415,0.85487 0.86459,0.57044 1.47734,-0.99788 -0.73858,-0.85574 -0.98704,0.57131 -0.49183,-0.143 M 103.91589,265 l -3.20635,-1.28388 -3.69665,0.42744 -4.562762,1.28302 -0.862897,0.85643 2.835446,1.99575 0,1.14088 -1.109655,1.14088 1.48056,2.99692 0.983817,-0.57217 1.235491,-1.99575 c 1.904546,-0.60182 3.61219,-1.28388 5.42244,-2.13962 l 1.48056,-3.85007 m 3.32897,11.98024 -0.49352,-1.28474 -0.86459,0.28601 0.24845,1.56744 1.10966,-0.56871 m 0.49182,-0.28773 -0.24676,1.71305 1.35642,-0.286 0.98551,-0.99701 -0.8629,-0.85644 c -0.28983,-0.78883 -0.62275,-1.52516 -0.98551,-2.28175 l -0.73858,0 0,0.85487 0.49182,0.57044 0,1.28301 m -18.244618,27.09747 -0.987039,-1.99732 -1.849085,-0.42744 -0.986197,-2.70832 -2.465218,0.28444 -2.095172,-1.56745 -2.220161,1.99576 0,0.31478 c -0.671588,-0.19813 -1.497174,-0.22517 -2.095166,-0.60095 l -0.493516,-1.42532 0,-1.56918 -1.479039,0.14212 c 0.123467,-0.99873 0.245917,-1.99575 0.370228,-2.99431 l -0.863747,0 -0.862047,1.14087 -0.863742,0.42657 -1.233121,-0.71101 -0.123464,-1.56918 0.246759,-1.71131 1.849934,-1.42531 1.479036,0 0.245908,-0.85644 1.849088,0.42657 1.356419,1.71304 0.246755,-2.85392 2.342614,-1.99576 0.862894,-2.13961 1.725791,-0.71258 0.986191,-1.42531 2.218463,-0.42987 1.110502,-1.70958 c -1.109658,0 -2.219313,0 -3.328965,0 l 2.095843,-0.99874 1.478183,0 2.0967,-0.71431 0.246758,-0.85315 -0.740281,-0.7143 -0.862897,-0.28599 0.246761,-0.85488 -0.616136,-1.28301 -1.479877,0.5687 0.246761,-1.14001 -1.725794,-0.99875 -1.355569,2.42303 0.12262,0.85644 -1.355569,0.57217 -0.863744,1.85345 -0.369375,-1.71132 -2.342614,-0.99874 -0.370219,-1.28302 3.082208,-1.85517 1.356416,-1.28301 0.123464,-1.56832 -0.739433,-0.42831 -0.986188,-0.143 -0.616142,1.56919 c 0,0 -1.030961,0.20643 -1.296036,0.27335 -3.385274,3.18828 -10.225353,10.0708 -11.814452,23.064 0.06292,0.30126 1.151884,2.0481 1.151884,2.0481 l 2.588688,1.56745 2.588691,0.71431 1.110499,1.42687 1.724947,1.28301 0.986191,-0.14213 0.739433,0.34025 0,0.23019 -0.985514,2.70919 -0.740277,1.14088 0.246755,0.57217 -0.616133,2.13615 2.219311,4.13694 2.218466,1.99732 0.987038,1.42531 -0.124144,2.99606 0.74028,1.70958 -0.74028,3.2805 c 0,0 -0.058,-0.0203 0.03646,0.308 0.09531,0.32848 3.950021,2.51542 4.195084,2.32926 0.244219,-0.18963 0.452989,-0.35551 0.452989,-0.35551 l -0.245914,-0.71101 0.985517,-0.99875 0.370222,-0.99873 1.603175,-0.57218 1.232272,-3.13819 -0.369375,-0.85315 0.861202,-1.283 1.849933,-0.42988 0.987035,-2.28175 -0.246755,-2.85045 1.47903,-2.13963 0.246761,-2.13961 c -2.023938,-1.02578 -4.031254,-2.08207 -6.040103,-3.1382 m -2.71249,-32.37354 1.232272,0.85574 0.987039,0 0,-0.99788 -1.23227,-0.57043 -0.987041,0.71257 m -3.204654,-1.14001 -0.616983,1.56831 1.233119,0 0.616983,-1.42618 c 0.531675,-0.38427 1.060811,-0.77098 1.602324,-1.14087 l 1.233126,0.4283 c 0.82151,0.57044 1.643027,1.14088 2.465221,1.71045 l 1.233799,-1.14001 -1.357266,-0.57044 -0.616986,-1.28388 -2.341925,-0.2853 -0.123464,-0.71344 -1.109655,0.286 -0.492502,0.99805 -0.616986,-1.28388 -0.245908,0.57044 0.123461,1.42619 -0.986358,0.85626 m 4.436926,-3.5665 0.616983,-0.56956 1.23312,-0.28531 c 0.84458,-0.41982 1.692558,-0.70252 2.588688,-0.99875 l -0.491822,-0.85575 -1.591644,0.23366 -0.751983,0.76596 -1.239733,0.18373 -1.102195,0.52902 -0.535743,0.26484 -0.327154,0.44773 1.601483,0.28443 m 2.096694,13.54925 0.74028,-1.14087 -1.110505,-0.85488 0.370225,1.99575"
       style="color:#000000;fill:#f0f0f0;fill-opacity:1;fill-rule:nonzero;stroke:none;stroke-width:1.01794541;marker:none;visibility:visible;display:inline;overflow:visible"
       id="path3224" />
  </g>
  <g
     inkscape:groupmode="layer"
     id="layer2"
     inkscape:label="circle"
     transform="translate(-66.425808,-261.00811)">
    <path
       inkscape:connector-curvature="0"
       d="m 134.37679,296.22109 c 0,18.89658 -14.9886,34.21541 -33.47507,34.21541 -18.488169,0 -33.475912,-15.319 -33.475912,-34.21541 0,-18.89572 14.987743,-34.21298 33.475912,-34.21298 18.48647,0 33.47507,15.31726 33.47507,34.21298 l 0,0 z"
       style="fill:#ffffff;fill-opacity:0;fill-rule:nonzero;stroke:#4b72a7;stroke-width:2;stroke-miterlimit:4;stroke-opacity:1;stroke-dasharray:none"
       id="path3214-1" />
  </g>
</svg>
